<svg xmlns="http://www.w3.org/2000/svg" viewBox="0 0 32 32">
  <!-- Blue rounded background -->
  <rect width="32" height="32" rx="6" fill="#3B82F6"/>
  <!-- Chat bubble icons (scaled from viewBox 0 0 20 20) -->
  <g transform="translate(6, 6) scale(1)">
    <path fill="white" d="M2 5a2 2 0 012-2h7a2 2 0 012 2v4a2 2 0 01-2 2H9l-3 3v-3H4a2 2 0 01-2-2V5z"/>
    <path fill="white" d="M15 7v2a4 4 0 01-4 4H9.828l-1.766 1.767c.28.149.599.233.938.233h2l3 3v-3h2a2 2 0 002-2V9a2 2 0 00-2-2h-1z"/>
  </g>
</svg>
